<svg xmlns="http://www.w3.org/2000/svg" xmlns:xlink="http://www.w3.org/1999/xlink" version="1.1" width="400" height="290.234375" viewBox="0, 0, 400,290.234375"><g id="svgg"><path id="path0" d="M272.714 10.610 C 270.105 11.847,266.781 13.353,266.658 13.353 C 266.581 13.353,265.126 14.006,263.425 14.804 C 261.724 15.602,260.276 16.255,260.207 16.255 C 260.054 16.255,258.219 17.081,254.717 18.723 C 253.280 19.397,251.778 20.048,251.379 20.170 C 250.980 20.291,250.522 20.494,250.362 20.621 C 250.202 20.748,249.353 21.133,248.475 21.477 C 247.598 21.822,244.332 23.213,241.219 24.570 C 234.213 27.624,234.942 27.300,231.550 28.870 C 229.984 29.595,228.612 30.189,228.502 30.189 C 227.311 30.193,223.181 33.058,222.110 34.624 C 220.262 37.324,220.606 39.744,223.758 46.229 C 232.487 64.190,230.245 62.250,243.163 63.016 C 248.184 63.313,254.863 63.717,258.004 63.912 C 261.145 64.108,265.550 64.228,267.792 64.180 C 273.564 64.057,274.665 64.583,276.535 68.360 C 277.432 70.172,279.949 73.817,281.804 75.991 C 282.174 76.424,283.219 77.826,284.126 79.108 C 285.897 81.607,287.167 83.292,292.165 89.765 C 293.922 92.042,295.999 94.819,296.781 95.936 C 298.393 98.241,303.283 104.839,310.313 114.192 C 314.540 119.817,315.282 120.662,316.554 121.305 C 321.497 123.803,327.078 120.806,327.641 115.350 C 327.861 113.225,327.216 111.642,324.820 108.418 C 323.751 106.981,319.567 101.364,315.522 95.936 C 311.476 90.508,305.881 82.997,303.088 79.245 C 295.489 69.038,286.324 56.738,284.514 54.317 C 281.432 50.197,281.153 50.109,269.164 49.490 C 264.411 49.244,258.890 48.921,256.894 48.771 C 254.898 48.622,250.784 48.412,247.750 48.305 C 244.717 48.199,242.022 48.001,241.762 47.867 C 241.222 47.588,238.790 42.847,238.946 42.378 C 239.003 42.209,246.880 38.601,256.451 34.361 L 273.853 26.652 279.516 32.412 C 291.594 44.697,301.976 55.273,314.949 68.508 C 322.373 76.081,331.980 85.873,336.298 90.268 C 352.800 107.063,356.845 111.183,361.584 116.030 C 367.101 121.670,367.897 122.193,370.972 122.193 C 375.146 122.193,378.509 118.860,378.517 114.717 C 378.522 111.847,377.935 111.119,365.071 98.033 C 359.456 92.321,352.642 85.373,349.927 82.593 C 326.089 58.179,319.633 51.669,319.258 51.669 C 319.141 51.669,318.441 50.918,317.703 50.000 C 316.551 48.568,295.539 27.041,283.733 15.199 C 278.763 10.213,275.988 9.057,272.714 10.610 M120.888 11.189 C 120.403 11.429,115.570 16.139,110.148 21.658 C 104.726 27.176,96.366 35.630,91.570 40.446 C 86.774 45.262,81.941 50.245,80.830 51.520 C 79.719 52.795,76.393 56.230,73.440 59.153 C 55.619 76.793,24.102 108.925,23.126 110.450 C 21.598 112.838,21.479 113.141,21.503 114.582 C 21.573 118.912,24.838 122.210,29.047 122.203 C 32.103 122.199,33.150 121.522,38.293 116.223 C 42.561 111.826,46.624 107.683,64.737 89.258 C 69.131 84.789,78.536 75.200,85.637 67.950 C 92.739 60.700,102.661 50.577,107.687 45.454 C 112.713 40.331,118.787 34.137,121.185 31.690 C 123.583 29.243,125.740 27.135,125.980 27.005 C 126.366 26.795,129.694 28.137,136.067 31.072 C 136.745 31.384,137.856 31.887,138.534 32.188 C 139.213 32.490,140.552 33.089,141.509 33.521 C 142.467 33.952,143.774 34.540,144.412 34.827 C 145.051 35.114,146.422 35.736,147.460 36.210 C 148.498 36.684,151.930 38.218,155.086 39.619 C 161.882 42.635,161.299 41.956,159.797 45.105 C 158.277 48.293,158.760 48.076,152.685 48.310 C 147.809 48.499,146.280 48.584,141.800 48.915 C 140.682 48.998,135.653 49.260,130.624 49.499 C 124.693 49.780,120.970 50.081,120.029 50.355 C 117.313 51.147,118.101 50.182,99.129 75.939 C 97.852 77.674,95.265 81.184,93.381 83.741 C 91.496 86.297,89.763 88.650,89.529 88.970 C 89.295 89.289,87.832 91.266,86.279 93.363 C 84.725 95.460,82.148 98.964,80.552 101.149 C 78.955 103.335,76.662 106.452,75.456 108.077 C 70.935 114.167,71.383 118.758,76.774 121.597 C 80.426 123.520,84.138 121.961,87.543 117.073 C 88.008 116.405,89.434 114.477,90.711 112.789 C 91.988 111.101,93.491 109.063,94.049 108.259 C 94.608 107.456,95.849 105.776,96.807 104.526 C 98.298 102.581,103.542 95.536,105.574 92.749 C 105.926 92.267,106.893 90.893,107.723 89.695 C 108.554 88.498,109.392 87.388,109.587 87.228 C 110.070 86.831,116.411 78.253,117.418 76.633 C 118.347 75.138,124.364 67.085,125.595 65.689 L 126.415 64.759 132.366 64.463 C 170.248 62.576,167.157 62.993,169.836 59.401 C 171.170 57.614,173.295 53.694,173.295 53.021 C 173.295 52.824,173.556 52.150,173.875 51.524 C 174.194 50.898,174.460 50.184,174.465 49.939 C 174.470 49.693,174.666 49.238,174.900 48.929 C 175.135 48.619,175.327 48.057,175.327 47.680 C 175.327 47.304,175.543 46.578,175.807 46.067 C 176.909 43.938,178.040 38.545,177.875 36.212 C 177.703 33.781,175.621 31.965,171.118 30.318 C 170.319 30.026,169.405 29.632,169.086 29.442 C 168.766 29.252,168.133 29.010,167.678 28.904 C 167.222 28.798,165.067 27.885,162.888 26.874 C 160.709 25.863,158.012 24.678,156.894 24.239 C 154.875 23.448,149.902 21.061,149.347 20.618 C 149.187 20.491,148.599 20.290,148.041 20.172 C 147.482 20.054,146.502 19.722,145.864 19.436 C 145.225 19.149,144.409 18.830,144.049 18.727 C 143.690 18.623,143.396 18.429,143.396 18.295 C 143.396 18.161,142.384 17.638,141.147 17.132 C 139.909 16.627,138.113 15.837,137.155 15.377 C 136.197 14.917,134.630 14.255,133.672 13.907 C 132.714 13.558,131.397 12.964,130.744 12.587 C 128.062 11.037,122.729 10.281,120.888 11.189 M22.382 132.955 C 11.606 134.527,2.690 143.299,0.584 154.402 C -0.304 159.083,-0.325 253.730,0.561 257.910 C 3.126 270.011,10.758 277.652,22.206 279.580 C 25.490 280.133,147.409 280.128,151.353 279.574 C 154.484 279.135,157.836 278.021,159.797 276.769 C 160.595 276.259,161.870 275.491,162.629 275.062 C 163.424 274.614,165.951 272.293,168.580 269.595 C 171.093 267.017,173.730 264.378,174.439 263.731 C 175.148 263.084,176.168 262.097,176.706 261.538 C 194.269 243.300,194.539 243.085,199.855 243.131 C 205.056 243.177,204.325 242.619,220.943 259.227 C 228.790 267.069,235.900 273.996,236.744 274.619 C 240.262 277.217,244.576 278.954,248.950 279.532 C 252.485 279.999,372.640 280.029,376.889 279.564 C 388.369 278.307,397.162 269.901,399.426 258.022 C 400.114 254.410,400.349 158.233,399.673 156.970 C 399.492 156.633,399.313 155.623,399.273 154.724 C 398.900 146.266,390.460 136.734,380.557 133.587 L 378.084 132.801 201.016 132.764 C 103.628 132.743,23.243 132.829,22.382 132.955 M350.073 147.823 L 376.052 147.896 377.939 148.795 C 380.886 150.199,383.106 152.663,384.256 155.805 C 385.087 158.076,385.030 254.894,384.197 257.039 C 382.736 260.798,380.495 262.974,376.732 264.284 C 374.772 264.967,251.516 264.956,249.166 264.273 C 246.768 263.576,245.859 262.757,231.383 248.265 C 215.444 232.307,214.401 231.423,209.434 229.668 C 197.705 225.523,187.679 228.404,177.676 238.795 C 159.893 257.267,153.623 263.278,151.219 264.156 C 149.118 264.924,25.668 265.071,23.155 264.309 C 18.820 262.993,16.046 259.655,15.418 254.999 C 14.859 250.856,15.218 157.421,15.799 155.616 C 16.777 152.580,19.023 150.068,22.010 148.668 L 23.657 147.896 130.914 147.750 C 229.769 147.617,282.186 147.634,350.073 147.823 M45.716 162.084 C 37.422 163.729,31.126 170.550,29.924 179.194 C 29.503 182.221,29.489 230.404,29.908 233.578 C 30.952 241.481,36.629 247.979,44.346 250.102 L 46.875 250.798 92.324 250.798 C 136.481 250.798,137.833 250.782,139.937 250.231 C 146.879 248.413,152.061 243.626,154.184 237.071 L 154.862 234.978 154.862 206.386 C 154.862 174.392,155.036 177.167,152.737 172.424 C 150.540 167.889,144.812 163.343,139.913 162.245 C 137.626 161.733,48.258 161.580,45.716 162.084 M260.377 162.226 C 253.674 163.742,248.524 168.540,245.794 175.814 C 245.160 177.502,245.160 177.529,245.069 205.615 L 244.979 233.726 245.614 236.094 C 247.489 243.089,252.820 248.343,259.924 250.197 C 263.543 251.141,351.663 251.143,355.394 250.198 C 362.211 248.473,367.876 242.877,369.776 235.994 C 370.356 233.894,370.640 183.054,370.093 179.245 C 369.122 172.484,364.973 166.556,359.315 163.846 C 358.462 163.438,357.550 162.988,357.288 162.846 C 355.196 161.716,353.749 161.683,307.297 161.709 C 266.340 161.732,262.370 161.776,260.377 162.226 M137.674 177.794 C 138.120 178.113,138.805 178.991,139.198 179.744 L 139.913 181.113 139.913 206.476 L 139.913 231.839 139.248 233.096 C 137.822 235.793,142.342 235.555,92.453 235.557 C 49.194 235.559,48.606 235.551,47.479 234.978 C 44.929 233.683,45.138 236.226,45.138 206.437 L 45.138 180.116 45.831 179.144 C 47.458 176.864,42.912 177.058,92.598 177.140 C 136.342 177.212,136.875 177.220,137.674 177.794 M353.402 178.221 C 355.079 179.846,355.042 179.163,354.949 207.018 C 354.851 236.018,355.052 233.566,352.655 234.978 C 351.681 235.552,351.147 235.559,307.692 235.559 C 257.632 235.559,262.180 235.797,260.752 233.096 L 260.087 231.839 260.094 206.413 L 260.101 180.987 260.892 179.536 C 262.373 176.820,257.718 177.056,308.039 177.140 L 352.363 177.213 353.402 178.221 M94.082 185.737 C 92.307 186.370,72.876 205.355,71.611 207.692 C 68.367 213.686,75.308 220.860,81.640 218.059 C 83.540 217.219,102.751 198.125,103.607 196.226 C 106.397 190.040,100.433 183.473,94.082 185.737 M309.722 185.467 C 308.005 185.989,306.758 187.107,297.328 196.569 C 289.375 204.550,287.272 206.820,286.756 207.983 C 284.170 213.812,289.546 220.068,295.735 218.431 L 297.678 217.918 307.943 207.725 C 319.277 196.471,319.588 196.075,319.588 192.888 C 319.588 187.805,314.534 184.003,309.722 185.467 M103.871 209.845 C 94.742 213.415,92.542 224.362,100.364 227.289 C 107.178 229.838,116.218 220.463,113.286 213.888 C 111.630 210.173,107.533 208.413,103.871 209.845 M318.433 209.889 C 316.869 210.593,312.274 215.026,311.381 216.691 C 308.869 221.379,312.851 227.866,318.241 227.866 C 321.210 227.866,326.507 223.949,328.309 220.420 C 331.515 214.143,324.828 207.012,318.433 209.889 " stroke="none" fill="#ffffff" fill-rule="evenodd"/><path id="path1" d="M262.700 177.575 C 262.036 177.908,261.409 178.588,260.892 179.536 L 260.101 180.987 260.094 206.413 L 260.087 231.839 260.752 233.096 C 262.180 235.797,257.632 235.559,307.692 235.559 C 351.147 235.559,351.681 235.552,352.655 234.978 C 355.052 233.566,354.851 236.018,354.949 207.018 C 355.042 179.163,355.079 179.846,353.402 178.221 L 352.363 177.213 308.039 177.140 C 266.285 177.070,263.657 177.096,262.700 177.575 M314.949 185.799 C 317.808 187.092,319.588 189.812,319.588 192.888 C 319.588 196.075,319.277 196.471,307.943 207.725 L 297.678 217.918 295.735 218.431 C 289.546 220.068,284.170 213.812,286.756 207.983 C 287.458 206.400,306.374 187.072,308.126 186.147 C 310.239 185.032,312.946 184.894,314.949 185.799 M324.383 209.831 C 330.519 212.628,330.766 218.792,324.963 224.339 C 320.671 228.441,317.046 228.953,313.351 225.977 C 309.251 222.675,309.707 217.795,314.565 213.003 C 318.277 209.342,321.222 208.390,324.383 209.831 " stroke="none" fill="#f72d1d" fill-rule="evenodd"/><path id="path2" d="M47.428 177.620 C 46.931 177.923,46.213 178.609,45.831 179.144 L 45.138 180.116 45.138 206.437 C 45.138 236.226,44.929 233.683,47.479 234.978 C 48.606 235.551,49.194 235.559,92.453 235.557 C 142.342 235.555,137.822 235.793,139.248 233.096 L 139.913 231.839 139.913 206.476 L 139.913 181.113 139.198 179.744 C 137.732 176.933,142.923 177.223,92.598 177.140 C 49.526 177.069,48.307 177.082,47.428 177.620 M100.441 186.243 C 103.715 188.025,105.198 192.699,103.607 196.226 C 102.751 198.125,83.540 217.219,81.640 218.059 C 75.308 220.860,68.367 213.686,71.611 207.692 C 72.876 205.355,92.307 186.370,94.082 185.737 C 96.200 184.982,98.453 185.161,100.441 186.243 M108.936 209.748 C 112.902 211.099,115.009 216.138,113.261 220.091 C 112.300 222.265,107.968 226.454,105.867 227.239 C 98.759 229.895,92.480 221.914,96.790 215.700 C 100.112 210.911,105.131 208.451,108.936 209.748 " stroke="none" fill="#048be0" fill-rule="evenodd"/><path id="path4" d="M274.522 10.079 C 275.037 10.143,275.952 10.144,276.554 10.081 C 277.156 10.018,276.734 9.966,275.617 9.965 C 274.499 9.963,274.007 10.015,274.522 10.079 M121.142 10.722 C 120.040 11.222,117.531 13.556,114.070 17.300 C 113.347 18.083,111.538 19.898,110.050 21.335 C 108.563 22.772,105.501 25.907,103.247 28.302 C 100.993 30.697,95.615 36.183,91.296 40.493 C 81.291 50.478,67.331 64.955,69.231 63.375 C 70.958 61.938,77.979 54.752,80.830 51.504 C 81.941 50.238,86.774 45.262,91.570 40.446 C 96.366 35.630,104.728 27.173,110.153 21.653 C 115.577 16.132,120.430 11.418,120.937 11.178 C 122.817 10.285,128.067 11.040,130.744 12.587 C 131.397 12.964,132.714 13.558,133.672 13.907 C 134.630 14.255,136.197 14.918,137.155 15.379 C 139.406 16.463,141.137 17.160,141.263 17.034 C 141.373 16.924,141.217 16.844,137.501 15.120 C 136.095 14.467,134.863 13.933,134.763 13.933 C 134.663 13.933,134.050 13.687,133.401 13.385 C 129.878 11.749,128.851 11.327,127.038 10.770 C 124.586 10.018,122.725 10.003,121.142 10.722 M270.247 11.409 C 267.311 12.736,266.181 13.330,266.563 13.344 C 266.764 13.351,269.458 12.154,272.714 10.610 C 274.831 9.606,272.730 10.287,270.247 11.409 M277.794 10.281 C 277.794 10.370,278.234 10.626,278.772 10.851 C 279.310 11.076,280.747 12.221,281.965 13.397 C 284.544 15.886,284.965 15.971,282.511 13.507 C 280.165 11.151,277.794 9.530,277.794 10.281 M260.377 15.789 C 253.689 18.808,250.434 20.381,251.379 20.136 C 251.778 20.033,253.280 19.398,254.717 18.724 C 256.154 18.050,257.787 17.300,258.345 17.057 C 263.766 14.700,266.497 13.393,266.038 13.376 C 265.878 13.369,263.331 14.455,260.377 15.789 M286.070 17.417 C 287.008 18.454,294.207 25.835,302.068 33.817 C 309.929 41.800,316.965 49.082,317.703 50.000 C 318.441 50.918,319.141 51.669,319.258 51.669 C 319.633 51.669,326.089 58.179,349.927 82.593 C 352.642 85.373,359.456 92.321,365.071 98.033 C 374.924 108.056,377.038 110.367,378.032 112.204 C 378.287 112.676,378.502 112.973,378.508 112.864 C 378.531 112.473,377.897 111.038,377.510 110.603 C 374.353 107.053,366.868 99.363,335.549 67.490 C 331.312 63.179,324.587 56.321,320.604 52.250 C 301.794 33.024,283.499 14.570,286.070 17.417 M142.371 17.586 C 142.844 17.858,143.409 18.259,143.625 18.475 C 143.841 18.691,144.180 18.868,144.378 18.868 C 144.576 18.868,145.253 19.111,145.882 19.409 C 146.994 19.935,148.910 20.507,148.621 20.227 C 148.461 20.072,142.637 17.460,141.945 17.232 C 141.705 17.154,141.897 17.313,142.371 17.586 M149.347 20.552 C 149.759 20.986,154.484 23.294,156.894 24.239 C 158.012 24.678,160.709 25.863,162.888 26.874 C 165.067 27.885,167.222 28.798,167.678 28.904 C 168.133 29.010,168.766 29.252,169.086 29.442 C 169.405 29.632,170.319 30.026,171.118 30.318 C 177.229 32.553,178.506 34.532,177.588 40.348 L 177.382 41.655 177.783 40.493 C 179.749 34.809,177.479 32.104,167.826 28.628 C 166.655 28.206,164.499 27.295,163.037 26.605 C 159.336 24.857,156.304 23.512,156.067 23.512 C 155.957 23.512,154.465 22.827,152.752 21.988 C 149.097 20.200,148.956 20.141,149.347 20.552 M248.911 20.905 C 248.273 21.207,246.183 22.122,244.267 22.938 C 242.351 23.754,240.653 24.552,240.493 24.711 C 240.334 24.870,241.313 24.518,242.671 23.930 C 244.028 23.341,246.248 22.407,247.605 21.855 C 248.962 21.302,250.197 20.731,250.348 20.585 C 250.784 20.165,250.198 20.296,248.911 20.905 M237.612 25.860 C 235.556 26.731,234.714 27.239,235.969 26.852 C 236.973 26.543,240.259 25.006,239.913 25.008 C 239.753 25.009,238.718 25.392,237.612 25.860 M126.415 26.954 C 126.575 27.111,128.534 28.050,130.769 29.041 C 136.242 31.467,136.913 31.741,136.575 31.410 C 136.415 31.255,134.586 30.378,132.511 29.462 C 126.591 26.850,126.106 26.650,126.415 26.954 M269.598 28.517 C 267.405 29.494,265.663 30.347,265.728 30.412 C 265.793 30.477,267.649 29.729,269.852 28.751 L 273.858 26.971 276.164 29.378 C 277.433 30.702,282.270 35.639,286.913 40.348 C 291.557 45.058,298.991 52.613,303.434 57.137 C 307.877 61.661,311.557 65.318,311.611 65.264 C 311.665 65.210,308.682 62.093,304.984 58.338 C 301.285 54.583,292.783 45.929,286.090 39.108 C 279.397 32.286,273.846 26.713,273.753 26.723 C 273.661 26.733,271.791 27.540,269.598 28.517 M121.313 31.567 C 99.273 53.968,89.533 63.954,89.440 64.244 C 89.380 64.432,90.863 63.019,92.735 61.103 C 103.959 49.619,108.100 45.399,115.945 37.446 C 124.619 28.653,126.205 26.996,125.946 26.996 C 125.872 26.996,123.787 29.053,121.313 31.567 M233.817 27.560 C 233.179 27.863,232.738 28.120,232.838 28.133 C 233.120 28.170,235.123 27.296,235.123 27.137 C 235.123 26.942,235.122 26.943,233.817 27.560 M229.972 29.232 C 228.655 29.812,227.631 30.340,227.696 30.405 C 227.837 30.546,231.956 28.786,232.351 28.415 C 232.773 28.020,232.552 28.096,229.972 29.232 M225.687 31.238 C 221.069 33.658,219.483 37.975,221.567 42.453 C 222.424 44.295,222.923 44.764,222.185 43.033 C 221.929 42.435,221.584 41.618,221.417 41.219 C 219.902 37.592,221.831 33.497,226.052 31.377 C 226.731 31.036,227.286 30.695,227.286 30.618 C 227.286 30.407,227.241 30.424,225.687 31.238 M260.453 32.568 C 257.860 33.711,255.791 34.697,255.854 34.761 C 255.993 34.900,264.759 31.107,265.152 30.738 C 265.608 30.310,265.352 30.410,260.453 32.568 M137.170 31.891 C 137.515 32.204,139.332 32.822,139.332 32.626 C 139.332 32.470,137.458 31.640,137.107 31.640 C 136.990 31.640,137.018 31.753,137.170 31.891 M139.782 33.052 C 140.127 33.366,141.945 33.984,141.945 33.787 C 141.945 33.631,140.071 32.801,139.719 32.801 C 139.602 32.801,139.631 32.914,139.782 33.052 M142.816 34.375 C 143.624 34.863,144.261 34.990,143.817 34.575 C 143.665 34.434,143.215 34.232,142.816 34.128 L 142.090 33.938 142.816 34.375 M251.601 36.492 C 249.568 37.394,247.957 38.184,248.021 38.248 C 248.159 38.386,254.883 35.462,255.283 35.090 C 255.727 34.677,255.485 34.769,251.601 36.492 M144.993 35.348 C 145.152 35.508,145.610 35.733,146.009 35.849 C 146.493 35.989,146.638 35.963,146.444 35.769 C 146.284 35.610,145.827 35.384,145.428 35.269 C 144.944 35.128,144.799 35.155,144.993 35.348 M147.025 36.226 C 147.425 36.619,151.547 38.390,151.702 38.235 C 151.771 38.166,151.204 37.843,150.442 37.518 C 149.680 37.193,148.534 36.705,147.896 36.434 C 147.257 36.162,146.865 36.069,147.025 36.226 M152.104 38.472 C 152.104 38.726,154.178 39.532,154.361 39.349 C 154.450 39.260,154.452 39.187,154.365 39.187 C 154.278 39.187,153.734 38.990,153.156 38.748 C 152.578 38.506,152.104 38.382,152.104 38.472 M246.299 38.881 C 245.660 39.183,245.240 39.441,245.365 39.454 C 245.706 39.489,247.605 38.660,247.605 38.476 C 247.605 38.261,247.619 38.256,246.299 38.881 M154.717 39.634 C 154.717 39.887,156.791 40.693,156.974 40.510 C 157.063 40.421,157.065 40.348,156.978 40.348 C 156.891 40.348,156.347 40.151,155.768 39.909 C 155.190 39.667,154.717 39.543,154.717 39.634 M241.951 40.776 C 240.358 41.479,239.008 42.191,238.953 42.358 C 238.829 42.729,240.333 45.976,240.534 45.774 C 240.613 45.696,240.338 44.960,239.922 44.140 C 238.990 42.300,238.925 42.394,242.012 41.080 C 244.156 40.167,245.498 39.447,244.978 39.488 C 244.906 39.493,243.544 40.073,241.951 40.776 M157.329 40.795 C 157.329 40.872,158.048 41.254,158.926 41.642 C 160.722 42.437,160.757 42.524,159.922 44.162 C 159.591 44.809,159.392 45.410,159.478 45.497 C 159.565 45.583,159.767 45.308,159.927 44.886 C 160.088 44.464,160.420 43.730,160.665 43.257 L 161.110 42.396 159.936 41.796 C 158.464 41.046,157.329 40.610,157.329 40.795 M176.783 43.324 C 176.614 44.002,176.217 45.116,175.901 45.799 C 175.585 46.482,175.327 47.310,175.327 47.641 C 175.327 47.971,175.140 48.588,174.912 49.012 C 174.353 50.049,173.789 51.873,174.137 51.517 C 174.435 51.213,175.221 49.178,175.593 47.750 C 175.717 47.271,176.120 46.226,176.487 45.428 C 177.071 44.159,177.513 42.090,177.200 42.090 C 177.140 42.090,176.952 42.645,176.783 43.324 M222.642 44.534 C 222.642 44.739,227.841 55.224,228.036 55.412 C 228.335 55.701,227.478 53.814,225.116 48.984 C 223.152 44.970,222.642 44.051,222.642 44.534 M158.705 46.700 C 158.348 47.645,157.363 47.866,153.266 47.918 C 152.068 47.934,150.435 48.052,149.637 48.182 C 148.763 48.324,150.092 48.356,152.975 48.263 C 158.255 48.093,158.583 48.011,159.025 46.741 C 159.416 45.621,159.126 45.585,158.705 46.700 M240.837 46.681 C 241.145 47.901,241.945 48.107,247.154 48.305 C 249.860 48.409,251.997 48.416,251.903 48.323 C 251.809 48.229,249.467 48.036,246.699 47.894 C 243.930 47.751,241.625 47.516,241.576 47.371 C 241.324 46.614,240.665 45.999,240.837 46.681 M134.601 48.917 C 130.642 49.116,127.311 49.375,127.199 49.492 C 127.087 49.610,128.498 49.625,130.334 49.527 C 132.170 49.429,136.284 49.208,139.478 49.036 C 142.671 48.865,145.414 48.679,145.573 48.623 C 146.103 48.438,141.889 48.551,134.601 48.917 M255.654 48.686 C 256.169 48.750,257.084 48.751,257.686 48.688 C 258.288 48.625,257.866 48.573,256.749 48.571 C 255.631 48.570,255.139 48.621,255.654 48.686 M261.684 49.038 C 266.397 49.404,273.441 49.623,271.970 49.359 C 271.242 49.228,267.976 49.051,264.713 48.967 C 260.805 48.865,259.771 48.890,261.684 49.038 M120.082 49.956 C 117.945 50.459,116.676 51.697,112.488 57.373 C 110.267 60.382,106.999 64.804,105.225 67.199 C 101.822 71.796,101.485 72.279,101.690 72.279 C 101.760 72.279,103.564 69.913,105.698 67.022 C 118.547 49.619,117.778 50.411,122.288 49.936 C 124.290 49.726,124.312 49.716,122.787 49.706 C 121.909 49.700,120.691 49.813,120.082 49.956 M277.214 49.946 C 278.412 50.073,279.784 50.325,280.262 50.506 C 280.914 50.752,281.050 50.752,280.805 50.504 C 280.322 50.015,278.449 49.647,276.633 49.683 C 275.099 49.713,275.122 49.723,277.214 49.946 M281.422 50.983 C 281.582 51.123,282.169 51.629,282.728 52.107 L 283.742 52.975 283.018 52.150 C 282.619 51.697,282.032 51.191,281.713 51.026 C 281.393 50.862,281.263 50.842,281.422 50.983 M173.491 52.281 C 173.431 52.503,173.243 53.110,173.073 53.630 C 172.902 54.150,172.878 54.505,173.018 54.418 C 173.319 54.232,173.919 52.197,173.729 52.007 C 173.657 51.935,173.550 52.058,173.491 52.281 M284.035 53.701 C 284.324 54.020,284.610 54.282,284.671 54.282 C 284.731 54.282,284.641 54.020,284.470 53.701 C 284.299 53.382,284.013 53.120,283.834 53.120 C 283.656 53.120,283.746 53.382,284.035 53.701 M284.975 54.935 C 285.131 55.134,288.323 59.412,292.067 64.441 C 306.140 83.346,308.347 86.310,315.522 95.936 C 326.044 110.055,326.698 110.950,327.063 111.756 C 327.251 112.170,327.400 112.292,327.411 112.038 C 327.440 111.403,328.468 112.836,315.230 95.065 C 288.859 59.664,285.039 54.572,284.851 54.572 C 284.762 54.572,284.818 54.735,284.975 54.935 M172.225 55.370 C 172.125 55.649,171.989 56.009,171.922 56.168 C 171.855 56.328,172.006 56.205,172.257 55.895 C 172.713 55.332,172.851 54.862,172.560 54.862 C 172.475 54.862,172.324 55.091,172.225 55.370 M228.157 55.886 C 228.157 56.403,230.080 59.705,230.925 60.642 C 232.500 62.385,234.069 62.901,238.462 63.122 C 240.537 63.227,245.109 63.495,248.621 63.718 C 252.134 63.941,257.032 64.184,259.507 64.257 C 266.466 64.464,260.792 64.000,246.113 63.162 C 231.347 62.318,231.601 62.403,229.293 57.568 C 228.516 55.939,228.157 55.408,228.157 55.886 M171.037 57.705 L 170.377 58.781 171.110 57.966 C 171.513 57.518,171.843 57.029,171.843 56.878 C 171.843 56.451,171.745 56.552,171.037 57.705 M169.301 60.065 C 168.863 60.691,168.194 61.349,167.814 61.527 C 167.435 61.705,167.202 61.929,167.297 62.024 C 167.581 62.308,168.942 61.273,169.291 60.507 C 169.469 60.116,169.710 59.797,169.827 59.797 C 169.944 59.797,170.115 59.601,170.207 59.361 C 170.500 58.597,170.120 58.892,169.301 60.065 M166.062 62.388 C 165.836 62.531,164.138 62.749,162.288 62.873 C 160.439 62.996,159.178 63.152,159.485 63.220 C 160.592 63.462,165.998 62.938,166.527 62.537 C 167.107 62.097,166.719 61.973,166.062 62.388 M145.327 63.735 C 141.041 63.942,137.459 64.186,137.369 64.276 C 137.278 64.367,137.650 64.441,138.195 64.441 C 140.334 64.441,157.175 63.531,157.297 63.410 C 157.487 63.220,154.096 63.312,145.327 63.735 M265.893 64.473 C 265.506 64.751,265.506 64.772,265.893 64.658 C 266.132 64.587,267.870 64.627,269.755 64.745 C 273.747 64.997,273.606 64.913,275.927 68.402 C 276.807 69.725,277.685 70.903,277.878 71.018 C 278.152 71.183,278.153 71.134,277.880 70.797 C 277.688 70.559,277.080 69.456,276.530 68.346 C 274.807 64.871,273.537 64.149,269.168 64.155 C 267.606 64.158,266.132 64.301,265.893 64.473 M128.529 64.657 L 126.289 64.756 123.864 67.864 C 120.810 71.778,118.448 74.996,117.411 76.653 C 116.458 78.175,110.088 86.809,109.609 87.228 C 108.933 87.818,107.415 90.095,107.591 90.255 C 107.690 90.346,107.831 90.254,107.904 90.050 C 107.977 89.846,108.577 88.997,109.237 88.163 C 110.698 86.320,116.924 77.938,118.709 75.413 C 122.503 70.046,126.193 65.327,126.705 65.188 C 127.025 65.101,128.331 65.012,129.608 64.990 C 130.885 64.968,132.845 64.856,133.962 64.741 L 135.994 64.533 133.382 64.545 C 131.945 64.552,129.761 64.602,128.529 64.657 M86.357 67.179 C 85.559 68.046,81.771 71.932,77.939 75.815 C 70.812 83.038,46.439 107.877,38.213 116.301 C 35.695 118.880,33.246 121.151,32.773 121.347 C 32.299 121.543,31.969 121.761,32.039 121.831 C 32.418 122.210,34.311 120.594,38.622 116.208 C 41.264 113.520,47.478 107.206,52.430 102.177 C 57.382 97.148,65.149 89.245,69.692 84.615 C 74.234 79.985,80.168 73.937,82.879 71.175 C 87.244 66.729,88.259 65.602,87.905 65.602 C 87.851 65.602,87.154 66.312,86.357 67.179 M318.011 72.061 C 320.249 74.336,325.413 79.594,329.486 83.745 C 333.559 87.896,340.693 95.145,345.338 99.855 C 349.983 104.565,356.565 111.268,359.964 114.752 C 365.454 120.378,367.179 121.918,367.983 121.915 C 368.110 121.914,367.758 121.646,367.199 121.320 C 366.640 120.993,364.075 118.569,361.498 115.934 C 358.922 113.298,354.023 108.306,350.613 104.840 C 335.422 89.401,316.395 70.008,315.464 69.013 C 314.904 68.414,314.332 67.925,314.193 67.925 C 314.054 67.925,315.772 69.786,318.011 72.061 M60.377 71.760 C 59.659 72.585,53.458 78.950,46.596 85.904 C 25.842 106.941,23.354 109.522,22.399 111.008 C 21.470 112.452,21.239 113.100,21.771 112.772 C 21.930 112.673,22.063 112.437,22.066 112.247 C 22.082 111.246,25.339 107.752,41.511 91.395 C 59.628 73.071,62.361 70.242,61.930 70.253 C 61.795 70.257,61.096 70.935,60.377 71.760 M278.263 71.771 C 278.622 72.382,281.065 75.472,281.189 75.472 C 281.364 75.472,280.977 74.894,279.573 73.063 C 278.409 71.544,277.746 70.889,278.263 71.771 M98.689 76.090 C 97.243 78.027,96.108 79.659,96.166 79.717 C 96.223 79.774,97.165 78.614,98.258 77.139 C 99.350 75.663,100.564 74.031,100.955 73.512 C 101.346 72.993,101.587 72.569,101.491 72.569 C 101.395 72.569,100.134 74.154,98.689 76.090 M282.366 77.231 C 282.965 78.039,283.911 79.332,284.470 80.105 C 285.029 80.878,287.978 84.821,291.024 88.868 C 294.070 92.915,298.885 99.361,301.724 103.193 C 304.562 107.025,307.022 110.210,307.189 110.271 C 307.356 110.333,307.098 109.876,306.617 109.256 C 304.636 106.704,298.697 98.671,297.091 96.372 C 296.144 95.015,293.994 92.138,292.314 89.980 C 290.634 87.821,288.868 85.514,288.389 84.854 C 287.910 84.193,286.930 82.877,286.212 81.928 C 285.493 80.980,284.187 79.205,283.309 77.985 C 282.431 76.764,281.615 75.765,281.495 75.764 C 281.376 75.763,281.768 76.423,282.366 77.231 M95.189 80.744 C 94.991 81.117,94.413 81.945,93.904 82.583 C 92.878 83.870,92.495 84.470,92.698 84.470 C 92.963 84.470,95.861 80.379,95.706 80.224 C 95.619 80.137,95.386 80.371,95.189 80.744 M90.434 87.270 C 89.868 88.011,89.405 88.751,89.405 88.915 C 89.405 89.078,89.446 89.157,89.495 89.090 C 90.648 87.551,91.740 85.922,91.620 85.922 C 91.534 85.922,91.000 86.528,90.434 87.270 M87.626 91.060 C 86.222 92.891,85.835 93.469,86.010 93.469 C 86.134 93.469,88.577 90.379,88.936 89.768 C 89.453 88.887,88.790 89.541,87.626 91.060 M106.368 91.660 C 105.148 93.146,104.822 93.849,105.933 92.598 C 106.771 91.655,107.531 90.559,107.340 90.571 C 107.294 90.574,106.857 91.064,106.368 91.660 M84.287 95.631 C 83.510 96.661,82.271 98.326,81.534 99.332 C 80.797 100.338,78.591 103.316,76.632 105.951 C 73.167 110.609,72.129 112.327,72.361 113.017 C 72.423 113.202,72.646 112.830,72.856 112.192 C 73.065 111.553,74.166 109.790,75.301 108.273 C 76.436 106.756,77.559 105.235,77.797 104.892 C 78.275 104.202,84.156 96.194,85.280 94.702 C 85.671 94.184,85.925 93.759,85.846 93.759 C 85.766 93.759,85.065 94.601,84.287 95.631 M101.691 98.006 C 99.963 100.342,97.765 103.276,96.807 104.526 C 95.849 105.776,94.608 107.456,94.049 108.259 C 93.491 109.063,91.988 111.101,90.711 112.789 C 89.434 114.477,88.008 116.405,87.543 117.073 C 84.573 121.336,82.962 122.340,79.381 122.159 C 78.075 122.093,77.412 122.149,77.686 122.303 C 79.169 123.133,83.350 122.200,85.011 120.668 C 85.666 120.064,91.533 112.312,94.350 108.327 C 95.063 107.320,96.178 105.818,96.829 104.989 C 97.772 103.788,102.798 97.015,104.752 94.310 C 104.971 94.007,105.079 93.759,104.992 93.759 C 104.905 93.759,103.420 95.670,101.691 98.006 M307.402 110.667 C 307.402 110.932,312.563 117.811,314.142 119.651 C 316.113 121.948,320.646 123.388,322.396 122.274 C 322.580 122.157,321.666 122.061,320.364 122.061 C 316.547 122.061,315.885 121.591,311.470 115.748 C 307.686 110.740,307.402 110.385,307.402 110.667 M378.593 114.804 C 378.596 115.443,378.655 115.670,378.725 115.309 C 378.794 114.948,378.792 114.425,378.719 114.148 C 378.646 113.870,378.590 114.165,378.593 114.804 M21.623 116.948 C 21.780 117.982,22.889 120.023,23.151 119.761 C 23.236 119.677,23.123 119.392,22.901 119.129 C 22.678 118.866,22.266 118.046,21.985 117.308 C 21.540 116.138,21.493 116.092,21.623 116.948 M72.292 116.285 C 72.217 118.066,75.977 122.668,76.820 121.825 C 76.906 121.739,76.606 121.474,76.152 121.236 C 74.845 120.552,73.469 118.944,72.863 117.393 C 72.557 116.608,72.300 116.109,72.292 116.285 M377.849 117.684 C 376.615 120.676,373.831 122.351,370.412 122.158 C 369.156 122.087,368.474 122.146,368.640 122.312 C 370.744 124.416,379.410 119.461,378.470 116.691 C 378.417 116.537,378.138 116.983,377.849 117.684 M326.864 118.109 C 326.435 119.145,324.989 120.652,323.866 121.232 C 323.402 121.472,323.098 121.743,323.189 121.835 C 323.720 122.365,326.827 119.390,327.272 117.925 C 327.556 116.990,327.275 117.117,326.864 118.109 M24.093 120.597 C 25.658 122.311,30.267 123.405,31.352 122.320 C 31.554 122.118,31.094 122.063,29.913 122.149 C 27.460 122.326,26.339 122.044,24.753 120.847 C 23.617 119.991,23.498 119.946,24.093 120.597 M21.985 132.644 C 20.277 132.976,20.357 133.242,22.094 133.010 C 24.125 132.739,375.838 132.736,377.939 133.007 C 379.254 133.177,379.433 133.151,378.955 132.862 C 378.300 132.466,24.011 132.249,21.985 132.644 M18.287 133.648 C 16.745 134.088,14.224 135.180,14.224 135.407 C 14.224 135.495,14.713 135.351,15.312 135.087 C 15.911 134.823,16.988 134.419,17.707 134.188 C 20.390 133.326,20.820 132.926,18.287 133.648 M380.810 133.671 C 383.020 134.405,383.410 134.477,382.578 133.999 C 382.175 133.767,381.326 133.504,380.691 133.413 L 379.536 133.248 380.810 133.671 M383.454 134.524 C 383.454 134.594,384.233 135.046,385.184 135.530 C 392.712 139.355,398.972 147.888,399.273 154.735 C 399.313 155.639,399.499 156.625,399.687 156.927 C 399.987 157.410,400.003 157.389,399.818 156.749 C 399.702 156.350,399.624 155.533,399.643 154.934 C 399.708 152.948,397.444 146.608,396.343 145.695 C 396.119 145.509,395.936 145.233,395.936 145.082 C 395.936 143.909,391.254 138.971,388.241 136.967 C 385.897 135.408,383.454 134.161,383.454 134.524 M13.353 135.771 C 9.505 137.244,2.376 145.896,1.328 150.363 L 1.158 151.089 1.480 150.363 C 4.160 144.312,7.646 139.902,12.060 136.979 C 13.090 136.297,13.933 135.698,13.933 135.649 C 13.933 135.547,13.944 135.545,13.353 135.771 M131.640 147.751 C 44.005 147.871,56.131 147.897,200.000 147.901 C 296.190 147.904,371.495 147.871,367.344 147.829 C 350.128 147.654,231.182 147.615,131.640 147.751 M21.837 148.759 C 19.014 150.073,16.349 153.166,15.829 155.733 C 15.732 156.212,15.992 155.801,16.408 154.820 C 17.780 151.580,20.052 149.545,23.367 148.586 C 24.691 148.203,24.900 148.078,24.238 148.064 C 23.759 148.054,22.679 148.367,21.837 148.759 M376.262 148.470 C 378.302 149.031,380.030 150.158,381.721 152.029 C 382.552 152.949,383.088 153.419,382.912 153.075 C 381.876 151.048,377.439 148.002,375.617 148.067 C 375.126 148.084,375.334 148.214,376.262 148.470 M0.635 152.456 C 0.464 153.141,0.255 154.419,0.171 155.298 C 0.062 156.424,0.183 156.087,0.581 154.153 C 1.158 151.349,1.194 150.216,0.635 152.456 M383.184 153.991 C 383.185 154.504,384.013 155.773,384.025 155.280 C 384.030 155.032,383.843 154.574,383.609 154.264 C 383.374 153.955,383.183 153.832,383.184 153.991 M384.180 206.386 C 384.180 240.162,384.276 256.692,384.470 256.365 C 384.661 256.046,384.761 238.862,384.761 206.386 C 384.761 173.910,384.661 156.726,384.470 156.407 C 384.276 156.081,384.180 172.610,384.180 206.386 M15.339 158.273 C 15.172 163.794,15.220 253.550,15.391 254.717 C 15.507 255.515,15.619 233.799,15.639 206.459 C 15.659 179.118,15.610 156.749,15.530 156.749 C 15.450 156.749,15.364 157.435,15.339 158.273 M47.658 161.543 C 47.740 161.625,67.453 161.695,91.465 161.699 C 131.774 161.706,138.397 161.807,140.639 162.453 C 141.039 162.568,141.129 162.525,140.929 162.314 C 140.150 161.493,134.835 161.393,91.614 161.393 C 67.356 161.393,47.576 161.461,47.658 161.543 M308.273 161.680 C 333.418 161.762,354.187 161.916,354.427 162.022 C 355.278 162.401,356.614 162.606,356.313 162.312 C 355.450 161.468,351.174 161.394,307.201 161.462 L 262.554 161.531 308.273 161.680 M44.848 161.879 C 42.643 162.367,43.273 162.572,45.573 162.115 C 46.868 161.858,47.141 161.742,46.444 161.746 C 45.885 161.749,45.167 161.809,44.848 161.879 M259.547 162.017 C 257.908 162.488,258.715 162.582,260.693 162.149 C 262.096 161.842,262.304 161.741,261.538 161.739 C 260.980 161.737,260.084 161.862,259.547 162.017 M41.887 162.875 C 41.376 163.023,40.878 163.273,40.781 163.430 C 40.534 163.829,40.892 163.757,42.235 163.135 C 43.494 162.552,43.357 162.450,41.887 162.875 M143.977 163.772 C 147.057 165.326,151.193 169.278,152.509 171.925 C 152.969 172.848,153.408 173.540,153.485 173.462 C 153.831 173.116,151.305 169.422,149.302 167.344 C 147.264 165.229,144.275 163.275,142.235 162.724 C 141.836 162.616,142.620 163.088,143.977 163.772 M255.824 163.565 C 252.880 165.037,249.022 168.600,247.724 171.045 C 247.057 172.301,247.419 171.980,248.433 170.415 C 249.945 168.081,253.369 165.104,256.086 163.760 C 257.409 163.107,258.345 162.568,258.167 162.563 C 257.989 162.558,256.934 163.009,255.824 163.565 M357.039 162.716 C 357.039 162.843,359.021 163.716,359.310 163.716 C 359.402 163.716,359.345 163.583,359.182 163.420 C 358.872 163.110,357.039 162.508,357.039 162.716 M38.729 164.649 C 35.963 166.457,31.092 171.973,31.714 172.594 C 31.809 172.690,32.111 172.331,32.384 171.798 C 33.664 169.297,36.202 166.702,39.778 164.239 C 41.068 163.350,40.192 163.693,38.729 164.649 M360.052 164.072 C 363.435 166.362,366.351 169.341,367.614 171.798 C 367.888 172.331,368.186 172.694,368.276 172.605 C 369.063 171.817,362.983 165.349,360.232 164.047 C 359.624 163.759,359.595 163.764,360.052 164.072 M246.325 173.698 C 245.616 175.302,245.122 177.068,245.383 177.068 C 245.464 177.068,245.720 176.448,245.952 175.689 C 246.184 174.931,246.588 173.821,246.848 173.222 C 247.109 172.623,247.254 172.134,247.170 172.134 C 247.086 172.134,246.706 172.838,246.325 173.698 M31.110 173.512 C 30.787 174.142,30.424 175.617,30.591 175.617 C 30.659 175.617,30.915 175.029,31.160 174.311 C 31.611 172.987,31.586 172.584,31.110 173.512 M368.843 174.318 C 369.092 175.050,369.343 175.601,369.401 175.544 C 369.575 175.369,368.938 173.327,368.654 173.152 C 368.509 173.062,368.594 173.587,368.843 174.318 M153.723 174.528 C 153.836 174.888,154.106 175.639,154.322 176.197 L 154.715 177.213 154.534 176.197 C 154.312 174.953,153.920 173.875,153.689 173.875 C 153.594 173.875,153.610 174.169,153.723 174.528 M30.091 176.323 C 28.872 179.500,29.090 238.264,30.316 236.820 C 30.362 236.765,30.217 235.485,29.993 233.976 C 29.444 230.281,29.580 179.411,30.144 177.393 C 30.483 176.177,30.445 175.400,30.091 176.323 M369.553 176.052 C 369.561 176.212,369.751 177.257,369.976 178.374 L 370.385 180.406 370.246 178.570 C 370.137 177.143,369.492 174.798,369.553 176.052 M154.862 206.383 C 154.862 225.647,154.958 234.922,155.152 234.595 C 155.340 234.279,155.443 224.397,155.443 206.531 C 155.443 188.764,155.339 178.729,155.152 178.319 C 154.957 177.890,154.862 187.020,154.862 206.383 M244.599 180.594 C 244.329 183.172,244.411 231.247,244.688 232.801 C 244.815 233.520,244.936 221.665,244.956 206.459 C 244.976 191.252,244.946 178.810,244.889 178.810 C 244.832 178.810,244.701 179.613,244.599 180.594 M370.457 206.096 C 370.387 229.465,370.255 234.303,369.627 236.430 C 369.507 236.837,369.549 236.922,369.768 236.716 C 370.555 235.975,370.706 230.478,370.621 205.660 L 370.534 180.406 370.457 206.096 M196.569 227.823 C 196.199 227.928,197.598 228.013,199.678 228.012 C 201.759 228.012,203.237 227.923,202.964 227.814 C 202.335 227.564,197.465 227.571,196.569 227.823 M193.469 228.354 C 192.398 228.595,190.962 229.085,191.055 229.177 C 191.105 229.228,192.126 229.032,193.324 228.743 C 194.521 228.454,195.174 228.219,194.775 228.221 C 194.376 228.223,193.788 228.283,193.469 228.354 M204.644 228.256 C 204.644 228.338,205.392 228.561,206.306 228.751 C 207.220 228.941,208.167 229.148,208.411 229.211 C 208.654 229.274,208.462 229.144,207.983 228.920 C 207.051 228.486,204.644 228.007,204.644 228.256 M189.042 229.778 C 187.666 230.380,187.889 230.515,189.405 229.999 C 190.123 229.754,190.711 229.501,190.711 229.436 C 190.711 229.216,189.989 229.364,189.042 229.778 M208.999 229.436 C 208.999 229.501,209.586 229.754,210.305 229.999 C 211.870 230.532,212.037 230.374,210.560 229.757 C 209.510 229.318,208.999 229.213,208.999 229.436 M185.994 231.356 C 185.236 231.832,184.615 232.292,184.615 232.379 C 184.615 232.541,187.161 231.150,187.649 230.721 C 188.286 230.161,187.287 230.544,185.994 231.356 M211.901 230.617 C 211.901 230.692,212.326 230.960,212.845 231.212 L 213.788 231.669 213.103 231.074 C 212.461 230.516,211.901 230.304,211.901 230.617 M213.957 231.750 C 214.765 232.486,217.997 234.753,217.997 234.584 C 217.997 234.344,214.352 231.640,214.028 231.640 C 213.923 231.640,213.891 231.690,213.957 231.750 M182.516 233.791 C 180.871 235.132,161.636 254.621,161.798 254.783 C 161.850 254.835,164.697 252.032,168.125 248.556 C 171.554 245.079,176.112 240.461,178.254 238.292 C 180.396 236.123,182.671 233.940,183.309 233.440 C 183.948 232.939,184.384 232.526,184.279 232.521 C 184.174 232.515,183.381 233.087,182.516 233.791 M218.287 234.944 C 218.287 235.255,220.026 236.965,220.183 236.808 C 220.253 236.738,219.855 236.239,219.299 235.700 C 218.743 235.160,218.287 234.820,218.287 234.944 M245.305 235.704 C 245.278 236.341,245.882 238.395,246.048 238.229 C 246.126 238.151,245.994 237.453,245.756 236.678 C 245.518 235.903,245.315 235.464,245.305 235.704 M154.050 237.317 C 153.328 239.886,151.648 242.540,149.145 245.065 C 147.916 246.304,147.142 247.195,147.424 247.044 C 149.981 245.675,155.216 237.635,154.652 235.943 C 154.587 235.750,154.316 236.368,154.050 237.317 M30.499 237.446 C 30.473 238.019,32.070 241.382,32.492 241.643 C 32.673 241.755,32.441 241.085,31.977 240.154 C 31.512 239.223,30.994 238.135,30.825 237.736 C 30.656 237.337,30.510 237.206,30.499 237.446 M220.618 237.316 C 220.628 237.682,222.312 239.323,222.492 239.143 C 222.569 239.066,222.178 238.561,221.621 238.022 C 221.065 237.483,220.613 237.165,220.618 237.316 M368.425 239.468 C 366.708 243.154,363.565 246.420,359.652 248.586 C 357.679 249.678,357.440 249.947,359.108 249.197 C 361.497 248.124,364.757 245.469,366.477 243.197 C 367.791 241.460,369.724 237.842,369.472 237.590 C 369.407 237.526,368.936 238.370,368.425 239.468 M246.444 239.352 C 246.444 241.597,253.620 248.546,256.894 249.470 C 257.293 249.583,256.608 249.112,255.371 248.423 C 251.838 246.455,247.025 241.531,247.025 239.885 C 247.025 239.680,246.894 239.431,246.734 239.332 C 246.575 239.234,246.444 239.243,246.444 239.352 M223.537 240.477 C 224.074 241.026,224.573 241.417,224.645 241.344 C 224.822 241.167,223.186 239.478,222.837 239.478 C 222.685 239.478,223.000 239.927,223.537 240.477 M33.059 242.609 C 33.993 244.347,39.233 248.702,40.984 249.195 C 41.353 249.299,40.806 248.898,39.768 248.304 C 38.670 247.676,36.817 246.155,35.337 244.668 C 33.937 243.262,32.912 242.335,33.059 242.609 M197.155 243.228 C 195.684 243.606,195.651 243.887,197.108 243.627 C 198.734 243.337,200.918 243.332,202.612 243.613 C 203.573 243.773,203.785 243.750,203.411 243.527 C 202.740 243.125,198.370 242.916,197.155 243.228 M193.904 244.577 C 192.653 245.285,186.647 250.976,186.647 251.454 C 186.647 251.581,188.052 250.261,189.768 248.520 C 191.657 246.604,193.461 245.061,194.340 244.607 C 195.138 244.196,195.660 243.854,195.501 243.849 C 195.341 243.843,194.623 244.171,193.904 244.577 M227.286 244.051 C 227.286 244.210,227.482 244.504,227.721 244.702 C 227.964 244.904,228.157 244.935,228.157 244.774 C 228.157 244.614,227.961 244.321,227.721 244.122 C 227.478 243.920,227.286 243.889,227.286 244.051 M205.515 244.728 C 206.074 245.060,212.899 251.688,220.682 259.457 C 228.465 267.226,234.833 273.476,234.833 273.345 C 234.833 272.966,207.423 245.669,206.227 244.857 C 205.631 244.453,204.999 244.122,204.822 244.123 C 204.644 244.124,204.956 244.396,205.515 244.728 M228.455 245.154 C 228.466 245.519,230.150 247.161,230.329 246.981 C 230.407 246.903,230.015 246.399,229.459 245.859 C 228.902 245.320,228.451 245.002,228.455 245.154 M145.718 247.910 L 144.993 248.492 145.791 248.147 C 146.230 247.957,146.589 247.693,146.589 247.559 C 146.589 247.228,146.549 247.244,145.718 247.910 M230.769 247.425 C 230.769 247.737,232.508 249.447,232.665 249.290 C 232.735 249.220,232.337 248.721,231.781 248.182 C 231.224 247.642,230.769 247.302,230.769 247.425 M143.541 249.041 C 142.903 249.343,142.482 249.601,142.607 249.614 C 142.948 249.649,144.848 248.820,144.848 248.636 C 144.848 248.420,144.861 248.416,143.541 249.041 M43.106 250.063 C 43.585 250.271,44.565 250.521,45.283 250.618 C 46.424 250.772,46.350 250.723,44.702 250.226 C 42.556 249.579,41.819 249.504,43.106 250.063 M140.639 250.087 L 139.478 250.493 140.639 250.333 C 141.277 250.245,141.924 250.052,142.075 249.905 C 142.449 249.542,142.056 249.592,140.639 250.087 M233.091 250.073 C 233.290 250.312,233.583 250.508,233.743 250.508 C 233.905 250.508,233.874 250.315,233.672 250.073 C 233.473 249.833,233.180 249.637,233.020 249.637 C 232.858 249.637,232.890 249.830,233.091 250.073 M257.910 249.884 C 258.070 250.043,258.723 250.250,259.361 250.346 C 260.140 250.462,260.331 250.435,259.942 250.266 C 258.912 249.818,257.594 249.571,257.910 249.884 M355.298 250.236 C 353.675 250.703,353.594 250.756,354.717 250.610 C 355.435 250.517,356.415 250.271,356.894 250.063 C 358.113 249.533,357.513 249.599,355.298 250.236 M70.029 251.016 C 82.282 251.058,102.333 251.058,114.586 251.016 C 126.840 250.974,116.814 250.940,92.308 250.940 C 67.801 250.940,57.776 250.974,70.029 251.016 M285.414 251.016 C 297.667 251.058,317.718 251.058,329.971 251.016 C 342.224 250.974,332.199 250.940,307.692 250.940 C 283.186 250.940,273.160 250.974,285.414 251.016 M182.954 255.043 L 180.697 257.256 183.091 255.147 C 184.409 253.987,185.486 252.991,185.486 252.934 C 185.486 252.631,185.009 253.028,182.954 255.043 M237.180 254.120 C 237.717 254.669,238.216 255.060,238.288 254.987 C 238.465 254.810,236.829 253.120,236.480 253.120 C 236.327 253.120,236.643 253.570,237.180 254.120 M160.228 256.173 C 159.689 256.729,159.348 257.184,159.472 257.184 C 159.784 257.184,161.493 255.446,161.336 255.289 C 161.266 255.219,160.767 255.616,160.228 256.173 M238.613 255.304 C 238.621 255.664,241.450 258.501,241.626 258.326 C 241.697 258.254,241.047 257.481,240.181 256.608 C 239.315 255.735,238.610 255.149,238.613 255.304 M399.448 257.837 C 399.258 258.995,399.041 260.269,398.966 260.668 C 398.883 261.111,398.988 260.992,399.235 260.363 C 399.638 259.336,400.176 255.733,399.926 255.733 C 399.854 255.733,399.639 256.680,399.448 257.837 M0.166 257.405 C 0.334 259.170,0.841 260.792,0.825 259.507 C 0.819 259.107,0.637 258.128,0.419 257.329 L 0.022 255.878 0.166 257.405 M15.697 256.604 C 15.610 258.878,20.535 264.197,22.677 264.140 C 22.897 264.135,22.389 263.797,21.548 263.390 C 20.707 262.983,19.458 262.106,18.771 261.441 C 17.662 260.367,17.201 259.603,16.028 256.894 C 15.856 256.495,15.707 256.364,15.697 256.604 M383.284 258.402 C 382.505 260.128,379.998 262.589,378.173 263.418 C 377.326 263.803,376.800 264.125,377.005 264.134 C 378.924 264.220,384.959 258.302,383.965 257.308 C 383.894 257.237,383.587 257.729,383.284 258.402 M179.125 258.853 C 178.443 259.612,177.763 260.457,177.615 260.733 C 177.467 261.008,176.447 261.960,175.347 262.848 C 174.248 263.736,173.267 264.675,173.168 264.933 C 172.850 265.761,177.964 260.838,179.633 258.708 C 180.918 257.070,180.665 257.142,179.125 258.853 M242.090 259.071 C 242.289 259.311,242.582 259.507,242.742 259.507 C 242.904 259.507,242.872 259.314,242.671 259.071 C 242.472 258.832,242.179 258.636,242.019 258.636 C 241.857 258.636,241.888 258.828,242.090 259.071 M155.620 260.816 C 155.078 261.373,154.759 261.829,154.910 261.829 C 155.060 261.829,155.627 261.372,156.168 260.813 C 156.710 260.254,157.029 259.798,156.878 259.800 C 156.727 259.802,156.161 260.259,155.620 260.816 M243.251 260.232 C 243.450 260.472,243.743 260.668,243.903 260.668 C 244.065 260.668,244.033 260.475,243.832 260.232 C 243.633 259.993,243.340 259.797,243.180 259.797 C 243.018 259.797,243.050 259.989,243.251 260.232 M0.874 260.595 C 0.905 262.774,3.981 268.544,6.682 271.490 C 9.210 274.247,14.742 278.243,15.283 277.702 C 15.368 277.617,14.713 277.193,13.828 276.760 C 8.477 274.139,3.781 268.530,1.755 262.337 C 1.183 260.588,0.865 259.959,0.874 260.595 M244.848 261.721 C 246.241 262.907,248.261 264.153,248.751 264.127 C 248.999 264.114,248.745 263.907,248.186 263.667 C 247.627 263.427,246.559 262.720,245.811 262.095 C 245.064 261.469,244.346 260.963,244.215 260.968 C 244.084 260.974,244.369 261.313,244.848 261.721 M398.250 262.627 C 398.061 263.226,397.319 264.826,396.602 266.183 C 395.885 267.540,395.498 268.454,395.742 268.215 C 396.280 267.687,398.434 263.402,398.706 262.317 C 399.002 261.140,398.642 261.384,398.250 262.627 M153.508 262.675 C 153.119 262.981,152.350 263.428,151.800 263.667 C 151.249 263.907,151.001 264.114,151.249 264.127 C 151.700 264.151,154.427 262.557,154.427 262.271 C 154.427 262.016,154.244 262.096,153.508 262.675 M87.083 264.441 L 23.948 264.588 86.938 264.655 C 127.229 264.698,150.084 264.621,150.363 264.441 C 150.602 264.286,150.668 264.190,150.508 264.227 C 150.348 264.264,121.807 264.360,87.083 264.441 M313.062 264.441 L 250.073 264.588 312.917 264.655 C 353.115 264.698,375.919 264.621,376.197 264.441 C 376.437 264.286,376.502 264.190,376.343 264.227 C 376.183 264.264,347.707 264.360,313.062 264.441 M168.829 269.409 C 166.793 271.498,165.179 273.258,165.241 273.320 C 165.303 273.382,167.023 271.728,169.063 269.644 C 171.103 267.560,172.718 265.800,172.651 265.733 C 172.584 265.666,170.864 267.321,168.829 269.409 M392.793 271.417 C 389.640 274.786,386.041 277.213,382.491 278.363 C 381.882 278.561,381.445 278.784,381.520 278.859 C 381.725 279.064,385.435 277.523,386.814 276.661 C 389.725 274.841,390.668 274.099,392.672 272.049 C 394.435 270.244,395.664 268.729,395.293 268.815 C 395.248 268.825,394.123 269.996,392.793 271.417 M164.181 273.987 C 163.907 274.290,162.897 274.956,161.937 275.468 C 160.977 275.980,160.253 276.460,160.328 276.535 C 160.494 276.701,163.308 275.104,164.265 274.299 C 164.646 273.978,164.896 273.653,164.819 273.576 C 164.742 273.499,164.455 273.684,164.181 273.987 M235.248 273.696 C 237.299 277.016,245.464 279.861,253.266 279.976 L 258.781 280.056 253.701 279.826 C 245.535 279.456,241.665 278.254,236.611 274.521 C 235.747 273.882,235.133 273.511,235.248 273.696 M159.071 277.213 C 158.672 277.526,158.488 277.784,158.663 277.787 C 158.838 277.791,159.218 277.533,159.507 277.213 C 160.168 276.482,160.006 276.482,159.071 277.213 M16.691 278.369 C 17.329 278.683,18.048 278.933,18.287 278.924 C 18.776 278.906,17.372 278.252,16.255 277.977 C 15.850 277.878,16.042 278.051,16.691 278.369 M156.626 278.252 C 155.999 278.482,155.411 278.744,155.320 278.836 C 155.047 279.109,156.836 278.615,157.620 278.201 C 158.568 277.699,158.063 277.726,156.626 278.252 M20.029 279.451 C 20.954 279.762,22.859 279.915,26.560 279.974 L 31.785 280.058 26.705 279.817 C 23.911 279.684,21.103 279.439,20.464 279.272 C 18.776 278.831,18.509 278.941,20.029 279.451 M153.124 279.284 C 152.488 279.433,150.659 279.674,149.060 279.819 L 146.154 280.083 149.347 279.968 C 151.103 279.905,153.128 279.664,153.846 279.433 C 155.315 278.960,154.886 278.872,153.124 279.284 M379.100 279.285 C 378.382 279.431,375.639 279.658,373.004 279.790 L 368.215 280.029 372.078 280.072 C 375.839 280.115,379.672 279.731,380.552 279.224 C 381.073 278.923,380.824 278.934,379.100 279.285 M66.410 280.040 C 67.254 280.099,68.560 280.098,69.313 280.039 C 70.066 279.979,69.376 279.931,67.779 279.932 C 66.183 279.933,65.567 279.981,66.410 280.040 M72.932 280.034 C 73.371 280.100,74.089 280.100,74.528 280.034 C 74.967 279.967,74.608 279.913,73.730 279.913 C 72.852 279.913,72.493 279.967,72.932 280.034 M102.814 280.042 C 104.522 280.094,107.395 280.094,109.200 280.043 C 111.005 279.992,109.608 279.950,106.096 279.950 C 102.583 279.949,101.107 279.991,102.814 280.042 M122.279 280.039 C 123.037 280.099,124.278 280.099,125.036 280.039 C 125.795 279.979,125.174 279.930,123.657 279.930 C 122.141 279.930,121.520 279.979,122.279 280.039 M133.745 280.041 C 134.742 280.097,136.375 280.097,137.373 280.041 C 138.371 279.984,137.554 279.938,135.559 279.938 C 133.563 279.938,132.747 279.984,133.745 280.041 M264.386 280.043 C 266.671 280.092,270.328 280.092,272.514 280.043 C 274.699 279.993,272.830 279.953,268.360 279.953 C 263.890 279.954,262.102 279.994,264.386 280.043 M293.977 280.043 C 300.882 280.087,312.181 280.087,319.086 280.043 C 325.991 280.000,320.341 279.965,306.531 279.965 C 292.721 279.965,287.072 280.000,293.977 280.043 M357.096 280.042 C 358.803 280.094,361.677 280.094,363.482 280.043 C 365.287 279.992,363.890 279.950,360.377 279.950 C 356.865 279.949,355.388 279.991,357.096 280.042 " stroke="none" fill="#979797" fill-rule="evenodd"/></g></svg>
